<svg xmlns="http://www.w3.org/2000/svg" viewBox="0 0 282.56 282.68"><defs><style>.cls-1,.cls-2{fill:#4c4b16;}.cls-1{isolation:isolate;opacity:0.1;}</style></defs><g id="Layer_2" data-name="Layer 2"><g id="Layer_1-2" data-name="Layer 1"><g id="Layer_2-2" data-name="Layer 2"><g id="Layer_1-2-2" data-name="Layer 1-2"><g id="layer1"><g id="g1011"><g id="g1017"><path id="path842" class="cls-1" d="M282.56,141.27A141.28,141.28,0,1,1,141.27,0h0A141.29,141.29,0,0,1,282.56,141.27Z"/><path id="path842-9" class="cls-2" d="M141.28,0A141.27,141.27,0,0,0,0,141.27v0a139.24,139.24,0,0,0,9.55,51H82.31v-77.2L142,69.41,201.31,115v78.28H273a148.76,148.76,0,0,0,9.55-52A141.27,141.27,0,0,0,141.3,0Zm0,19.18a122.09,122.09,0,0,1,122.1,122.08v0a132.28,132.28,0,0,1-5.76,38H216.31v-49H247L141.08,49,99.26,81.08l-.59-13.82H82.31l-.15,27.2L38,130.26h30.3v48H24.94a120.67,120.67,0,0,1-5.75-37A122.09,122.09,0,0,1,141.28,19.19Zm0,90.72c-12.5,0-25,6.94-25,20.8v41.55h50V130.71C166.28,116.85,153.78,109.9,141.28,109.9Zm0,12.57c6,.08,12,2.84,12,8v28.77h-23V130.49c0-5.5,5.5-8.09,11-8Zm-125,84.78c26.92,48.15,74.7,75.2,125,75.43a141.23,141.23,0,0,0,125-75.43Z"/></g></g></g></g></g></g></g></svg>