<svg xmlns="http://www.w3.org/2000/svg" viewBox="0 0 282.55 282.69"><defs><style>.cls-1{fill:#fff;isolation:isolate;opacity:0.1;}.cls-2{fill:#4c4b16;}.cls-3{fill:#e7b10a;}.cls-4{fill:#898121;}</style></defs><g id="Layer_2" data-name="Layer 2"><g id="Layer_1-2" data-name="Layer 1"><g id="layer1"><g id="g1011"><g id="g1017"><path id="path842" class="cls-1" d="M282.55,141.27A141.28,141.28,0,1,1,141.27,0,141.28,141.28,0,0,1,282.55,141.27Z"/><path id="path842-9" class="cls-2" d="M141.27,0A141.27,141.27,0,0,0,0,141.29a139.39,139.39,0,0,0,9.55,51H82.3v-77.2L142,69.41,201.3,115v78.28H273a148.66,148.66,0,0,0,9.55-52A141.27,141.27,0,0,0,141.27,0Zm0,19.18a122.09,122.09,0,0,1,122.1,122.1,132.19,132.19,0,0,1-5.76,38H216.3v-49H247L141.07,49,99.25,81.08l-.59-13.82H82.3l-.15,27.2L38,130.26H68.3v48H24.93a120.62,120.62,0,0,1-5.75-37A122.09,122.09,0,0,1,141.27,19.19Zm0,90.72c-12.5,0-25,6.94-25,20.8v41.55h50V130.71c0-13.86-12.5-20.81-25-20.81Zm0,12.57c6,.08,12,2.84,12,8v28.77h-23V130.49c0-5.5,5.5-8.09,11-8Zm-125,84.78c26.92,48.15,74.7,75.2,125,75.43a141.24,141.24,0,0,0,125-75.43h-250Z"/><path id="path961" class="cls-3" d="M141.27,19.19a122.09,122.09,0,0,1,122.1,122.1,132.19,132.19,0,0,1-5.76,38H216.3v-49H247L141.07,49,99.25,81.08l-.59-13.82H82.3l-.15,27.2L38,130.26H68.3v48H24.93a120.62,120.62,0,0,1-5.75-37A122.09,122.09,0,0,1,141.27,19.19Z"/><path id="path985" class="cls-4" d="M141.8,122.48c5.75.08,11.5,2.84,11.5,8v28.77h-23V130.49c0-5.49,5.75-8.09,11.5-8Z"/></g></g></g></g></g></svg>